<?xml version="1.0" encoding="UTF-8" ?>
<!DOCTYPE svg PUBLIC "-//W3C//DTD SVG 1.1//EN" "http://www.w3.org/Graphics/SVG/1.1/DTD/svg11.dtd">
<svg width="645pt" height="534pt" viewBox="0 0 645 534" version="1.1" xmlns="http://www.w3.org/2000/svg">
<g id="#dfdfdfff">
<path fill="#dfdfdf" opacity="1.00" d=" M 0.00 0.00 L 0.35 0.00 C 1.62 2.10 2.07 5.10 0.00 6.87 L 0.00 0.00 Z" />
<path fill="#dfdfdf" opacity="1.00" d=" M 0.00 14.06 C 1.29 17.24 1.31 20.66 0.00 23.84 L 0.00 14.06 Z" />
<path fill="#dfdfdf" opacity="1.00" d=" M 0.00 30.07 C 1.26 33.25 1.37 36.66 0.00 39.82 L 0.00 30.07 Z" />
<path fill="#dfdfdf" opacity="1.00" d=" M 0.00 46.07 C 1.33 49.24 1.31 52.65 0.00 55.81 L 0.00 46.07 Z" />
<path fill="#dfdfdf" opacity="1.00" d=" M 0.00 62.07 C 1.27 65.25 1.35 68.67 0.00 71.84 L 0.00 62.07 Z" />
<path fill="#dfdfdf" opacity="1.00" d=" M 0.00 78.07 C 1.26 81.24 1.40 84.66 0.00 87.82 L 0.00 78.07 Z" />
<path fill="#dfdfdf" opacity="1.00" d=" M 0.00 94.10 C 1.23 97.27 1.38 100.68 0.00 103.83 L 0.00 94.10 Z" />
<path fill="#dfdfdf" opacity="1.00" d=" M 0.00 109.84 C 1.26 113.10 1.37 116.58 0.00 119.81 L 0.00 109.84 Z" />
<path fill="#dfdfdf" opacity="1.00" d=" M 0.00 125.90 C 1.22 129.14 1.40 132.61 0.00 135.82 L 0.00 125.90 Z" />
<path fill="#dfdfdf" opacity="1.00" d=" M 0.00 142.04 C 1.25 145.23 1.37 148.65 0.00 151.82 L 0.00 142.04 Z" />
<path fill="#dfdfdf" opacity="1.00" d=" M 0.00 158.02 C 1.23 161.21 1.39 164.64 0.00 167.82 L 0.00 158.02 Z" />
<path fill="#dfdfdf" opacity="1.00" d=" M 0.00 174.02 C 1.29 177.21 1.37 180.66 0.00 183.84 L 0.00 174.02 Z" />
<path fill="#dfdfdf" opacity="1.00" d=" M 0.00 190.09 C 1.28 193.26 1.36 196.66 0.00 199.81 L 0.00 190.09 Z" />
<path fill="#dfdfdf" opacity="1.00" d=" M 0.00 206.02 C 1.30 209.20 1.35 212.64 0.00 215.82 L 0.00 206.02 Z" />
<path fill="#dfdfdf" opacity="1.00" d=" M 0.00 221.99 C 1.24 225.20 1.37 228.63 0.00 231.82 L 0.00 221.99 Z" />
<path fill="#dfdfdf" opacity="1.00" d=" M 0.00 238.04 C 1.28 241.23 1.33 244.64 0.00 247.83 L 0.00 238.04 Z" />
<path fill="#dfdfdf" opacity="1.00" d=" M 0.00 254.04 C 1.33 257.21 1.30 260.62 0.00 263.80 L 0.00 254.04 Z" />
<path fill="#dfdfdf" opacity="1.00" d=" M 0.00 270.03 C 1.31 273.21 1.34 276.64 0.00 279.82 L 0.00 270.03 Z" />
<path fill="#dfdfdf" opacity="1.00" d=" M 0.00 286.02 C 1.28 289.21 1.34 292.64 0.00 295.83 L 0.00 286.02 Z" />
<path fill="#dfdfdf" opacity="1.00" d=" M 0.00 302.05 C 1.29 305.23 1.37 308.65 0.00 311.82 L 0.00 302.05 Z" />
<path fill="#dfdfdf" opacity="1.00" d=" M 0.00 318.09 C 1.26 321.26 1.36 324.67 0.00 327.84 L 0.00 318.09 Z" />
<path fill="#dfdfdf" opacity="1.00" d=" M 0.00 334.09 C 1.24 337.26 1.35 340.66 0.00 343.82 L 0.00 334.09 Z" />
<path fill="#dfdfdf" opacity="1.00" d=" M 0.00 350.08 C 1.29 353.25 1.39 356.67 0.00 359.83 L 0.00 350.08 Z" />
<path fill="#dfdfdf" opacity="1.00" d=" M 0.00 366.07 C 1.30 369.24 1.34 372.64 0.00 375.81 L 0.00 366.07 Z" />
<path fill="#dfdfdf" opacity="1.00" d=" M 0.00 382.05 C 1.30 385.22 1.39 388.66 0.00 391.83 L 0.00 382.05 Z" />
<path fill="#dfdfdf" opacity="1.00" d=" M 0.00 398.06 C 1.30 401.24 1.36 404.66 0.00 407.83 L 0.00 398.06 Z" />
<path fill="#dfdfdf" opacity="1.00" d=" M 0.00 414.01 C 1.32 417.20 1.29 420.62 0.00 423.82 L 0.00 414.01 Z" />
<path fill="#dfdfdf" opacity="1.00" d=" M 0.00 430.06 C 1.25 433.25 1.36 436.66 0.00 439.83 L 0.00 430.06 Z" />
<path fill="#dfdfdf" opacity="1.00" d=" M 0.00 446.00 C 1.30 449.19 1.32 452.62 0.00 455.81 L 0.00 446.00 Z" />
<path fill="#dfdfdf" opacity="1.00" d=" M 0.00 462.03 C 1.30 465.21 1.36 468.65 0.00 471.83 L 0.00 462.03 Z" />
<path fill="#dfdfdf" opacity="1.00" d=" M 0.00 477.98 C 1.28 481.19 1.36 484.62 0.00 487.82 L 0.00 477.98 Z" />
<path fill="#dfdfdf" opacity="1.00" d=" M 0.00 494.05 C 1.30 497.22 1.36 500.64 0.00 503.81 L 0.00 494.05 Z" />
<path fill="#dfdfdf" opacity="1.00" d=" M 0.00 510.03 C 1.27 513.22 1.37 516.66 0.00 519.85 L 0.00 510.03 Z" />
<path fill="#dfdfdf" opacity="1.00" d=" M 0.00 527.11 C 1.65 529.05 1.97 531.87 0.45 534.00 L 0.00 534.00 L 0.00 527.11 Z" />
</g>
<g id="#ffffffff">
</g>
<g id="#00dee4ff">
<path fill="#00dee4" opacity="1.00" d=" M 259.44 54.90 C 288.63 54.77 317.83 54.65 347.02 54.53 C 357.08 54.53 367.15 54.26 377.20 54.88 C 379.57 57.67 381.23 60.94 383.07 64.07 C 419.70 126.16 455.85 188.54 492.08 250.87 C 503.02 268.69 513.17 286.98 524.03 304.84 C 537.89 329.00 552.27 352.84 566.16 376.99 C 567.80 380.13 571.00 383.05 570.35 386.89 C 561.82 402.88 551.82 418.02 542.75 433.70 C 532.13 451.83 521.49 469.95 510.71 487.98 C 508.84 484.33 506.61 480.88 504.41 477.42 C 484.28 444.40 465.60 410.51 445.93 377.21 C 435.78 359.26 425.42 341.42 415.02 323.63 C 394.75 288.95 375.21 253.84 354.50 219.42 C 333.50 182.26 311.92 145.43 290.59 108.45 C 280.17 90.62 270.17 72.53 259.44 54.90 Z" />
</g>
<g id="#008793ff">
<path fill="#008793" opacity="1.00" d=" M 202.21 157.80 C 211.47 157.97 220.75 157.49 230.00 158.27 C 247.67 159.28 265.38 158.29 283.05 159.29 C 294.65 159.58 306.25 159.92 317.86 159.80 C 314.45 165.71 311.26 171.74 307.44 177.41 C 288.16 211.67 268.61 245.78 248.86 279.77 C 240.25 293.62 233.03 308.29 224.23 322.00 C 219.60 328.38 216.87 335.86 214.17 343.20 C 213.07 343.65 212.01 344.27 211.41 345.35 C 208.11 350.22 205.54 355.55 202.61 360.65 C 181.29 397.08 160.60 433.88 139.35 470.35 C 135.88 476.57 131.57 482.51 130.10 489.62 C 129.38 490.30 128.66 491.00 127.94 491.69 C 115.04 471.52 103.37 450.60 91.08 430.06 C 82.99 415.98 74.11 402.37 66.45 388.05 C 73.47 374.78 81.69 362.20 89.10 349.15 C 109.77 313.59 130.49 278.07 151.31 242.60 C 166.07 217.20 181.38 192.12 195.78 166.51 C 197.47 163.29 199.62 160.35 202.21 157.80 Z" />
</g>
<g id="#00a6b1ff">
<path fill="#00a6b1" opacity="1.00" d=" M 214.17 343.20 C 216.87 335.86 219.60 328.38 224.23 322.00 C 224.34 322.56 224.56 323.69 224.67 324.25 L 224.99 324.89 C 227.46 329.92 230.86 334.40 234.09 338.95 C 249.12 359.66 263.96 380.52 279.04 401.19 L 279.59 401.89 C 242.50 422.77 206.17 444.95 169.44 466.43 C 166.51 468.16 163.61 469.95 160.51 471.35 C 174.12 438.46 187.71 405.56 201.72 372.84 C 205.63 362.86 209.92 353.04 214.17 343.20 Z" />
</g>
<g id="#00c0c7ff">
<path fill="#00c0c7" opacity="1.00" d=" M 224.67 324.25 C 264.79 324.31 304.90 324.13 345.02 324.25 C 346.72 324.25 348.43 324.11 350.11 323.77 L 350.60 324.38 C 364.41 340.22 380.04 354.35 394.25 369.81 C 418.97 395.08 443.50 420.53 468.12 445.90 C 475.04 453.29 482.12 460.53 489.32 467.65 C 493.35 471.82 497.85 475.59 501.22 480.36 C 502.00 481.76 502.67 483.19 503.39 484.64 C 493.51 479.67 484.24 473.58 474.52 468.31 C 454.56 457.08 434.91 445.30 414.91 434.14 C 400.41 426.13 386.44 417.20 371.93 409.20 C 359.52 402.31 347.34 395.03 334.99 388.03 C 329.31 384.74 323.40 381.81 317.91 378.20 C 305.69 370.51 292.90 363.75 280.45 356.44 C 262.01 345.84 243.45 335.45 224.99 324.89 L 224.67 324.25 Z" />
</g>
<g id="#003d5bff">
<path fill="#003d5b" opacity="1.00" d=" M 350.60 324.38 C 359.80 324.24 369.00 324.36 378.20 324.22 C 378.65 324.10 379.56 323.87 380.01 323.75 C 381.84 324.64 383.85 324.09 385.78 323.94 C 395.52 323.58 405.28 323.90 415.02 323.63 C 425.42 341.42 435.78 359.26 445.93 377.21 C 465.60 410.51 484.28 444.40 504.41 477.42 C 503.97 478.52 503.52 479.61 503.07 480.70 C 502.61 480.62 501.68 480.45 501.22 480.36 C 497.85 475.59 493.35 471.82 489.32 467.65 C 482.12 460.53 475.04 453.29 468.12 445.90 C 443.50 420.53 418.97 395.08 394.25 369.81 C 380.04 354.35 364.41 340.22 350.60 324.38 Z" />
<path fill="#003d5b" opacity="1.00" d=" M 224.99 324.89 C 243.45 335.45 262.01 345.84 280.45 356.44 C 292.90 363.75 305.69 370.51 317.91 378.20 L 317.40 379.04 C 304.94 386.75 291.91 393.60 279.79 401.84 L 279.04 401.19 C 263.96 380.52 249.12 359.66 234.09 338.95 C 230.86 334.40 227.46 329.92 224.99 324.89 Z" />
<path fill="#003d5b" opacity="1.00" d=" M 211.41 345.35 C 212.01 344.27 213.07 343.65 214.17 343.20 C 209.92 353.04 205.63 362.86 201.72 372.84 C 187.71 405.56 174.12 438.46 160.51 471.35 C 160.44 471.51 160.30 471.84 160.23 472.00 C 156.54 473.57 153.30 475.95 149.84 477.94 C 143.33 481.95 136.61 485.61 130.10 489.62 C 131.57 482.51 135.88 476.57 139.35 470.35 C 160.60 433.88 181.29 397.08 202.61 360.65 C 205.54 355.55 208.11 350.22 211.41 345.35 Z" />
</g>
<g id="#0099a8ff">
<path fill="#0099a8" opacity="1.00" d=" M 504.41 477.42 C 506.61 480.88 508.84 484.33 510.71 487.98 C 508.12 487.63 505.91 486.21 503.62 485.10 L 503.39 484.64 C 502.67 483.19 502.00 481.76 501.22 480.36 C 501.68 480.45 502.61 480.62 503.07 480.70 C 503.52 479.61 503.97 478.52 504.41 477.42 Z" />
</g>
</svg>
